<?xml version="1.0" encoding="UTF-8" standalone="no"?>
<!-- Created with Inkscape (http://www.inkscape.org/) -->

<svg
   xmlns:dc="http://purl.org/dc/elements/1.1/"
   xmlns:cc="http://creativecommons.org/ns#"
   xmlns:rdf="http://www.w3.org/1999/02/22-rdf-syntax-ns#"
   xmlns:svg="http://www.w3.org/2000/svg"
   xmlns="http://www.w3.org/2000/svg"
   xmlns:sodipodi="http://sodipodi.sourceforge.net/DTD/sodipodi-0.dtd"
   xmlns:inkscape="http://www.inkscape.org/namespaces/inkscape"
   id="svg3390"
   version="1.1"
   inkscape:version="0.91 r13725"
   width="1121.25"
   height="1121.25"
   viewBox="0 0 1121.25 1121.25"
   sodipodi:docname="pencil.svg">
  <metadata
     id="metadata3396">
    <rdf:RDF>
      <cc:Work
         rdf:about="">
        <dc:format>image/svg+xml</dc:format>
        <dc:type
           rdf:resource="http://purl.org/dc/dcmitype/StillImage" />
        <dc:title></dc:title>
      </cc:Work>
    </rdf:RDF>
  </metadata>
  <defs
     id="defs3394" />
  <sodipodi:namedview
     pagecolor="#ffffff"
     bordercolor="#666666"
     borderopacity="1"
     objecttolerance="10"
     gridtolerance="10"
     guidetolerance="10"
     inkscape:pageopacity="0"
     inkscape:pageshadow="2"
     inkscape:window-width="1366"
     inkscape:window-height="742"
     id="namedview3392"
     showgrid="false"
     inkscape:zoom="0.35189796"
     inkscape:cx="341.62496"
     inkscape:cy="715.06328"
     inkscape:window-x="0"
     inkscape:window-y="0"
     inkscape:window-maximized="1"
     inkscape:current-layer="svg3390" />
  <path
     style="fill:#000000"
     d="m 36.123741,1118.3723 c -9.21713,-3.1707 -15.10373,-6.9516 -21.54931,-13.841 -6.6152353,-7.0708 -8.6231573,-10.4348 -11.7259143,-19.6452 -2.52343102,-7.4907 -2.55783302,-9.7122 -2.55783302,-165.17171 0,-155.45945 0.0344,-157.68099 2.55783302,-165.17168 1.406808,-4.17604 3.467175,-9.08017 4.578593,-10.89807 C 10.414527,738.75828 737.62724,11.260497 743.00479,7.7786224 c 16.169,-10.469161 39.52821,-10.480528 55.82178,-0.02716 2.52401,1.619317 19.55169,17.7702996 37.83929,35.8910716 18.28758,18.120774 70.88133,70.071406 116.87497,115.445856 151.53947,149.49918 156.31907,154.32403 159.68077,161.1943 10.8119,22.09611 10.8974,41.53103 0.255,57.9676 -3.4819,5.37755 -730.97981,732.59031 -735.86617,735.57771 -1.8179,1.1114 -6.72202,3.1718 -10.89807,4.5786 -7.49369,2.5244 -9.65348,2.5572 -165.44474,2.5159 -154.715079,-0.041 -157.996839,-0.092 -165.143879,-2.5502 z M 650.52235,696.35771 948.88103,398.00104 l -7.0179,-7.58083 c -3.8597,-4.16944 -21.7834,-22.08816 -39.83029,-39.81936 l -32.81251,-32.23855 -36.65232,36.76292 c -20.15878,20.21959 -85.26976,85.91445 -144.69104,145.98855 -59.42129,60.07408 -116.51925,117.66312 -126.88438,127.97562 -10.36511,10.3125 -65.81019,66.26444 -123.21128,124.33764 -57.40109,58.0732 -117.66245,118.9817 -133.91413,135.35222 l -29.54849,29.7646 38.2843,38.08527 c 21.05638,20.94684 38.5715,38.08524 38.92253,38.08524 0.35101,0 134.89958,-134.26047 298.99683,-298.35665 z m -387.47143,86.16918 c 33.79868,-34.20313 69.93247,-70.625 80.29732,-80.9375 10.36484,-10.3125 65.80768,-66.26098 123.2063,-124.32995 117.06434,-118.4315 184.98067,-187.00501 270.55211,-273.17005 l 58.34527,-58.75 -36.64312,-35.92993 -36.64312,-35.92991 -298.24784,298.23928 -298.24782,298.23927 36.99782,37.31103 c 20.34882,20.52106 37.43278,37.34122 37.96438,37.37814 0.5316,0.0369 28.62001,-27.91725 62.4187,-62.12038 z"
     id="path3400"
     inkscape:connector-curvature="0" />
</svg>
