<?xml version="1.0" encoding="UTF-8" standalone="no"?>
<!-- Created with Inkscape (http://www.inkscape.org/) -->

<svg
   xmlns:dc="http://purl.org/dc/elements/1.1/"
   xmlns:cc="http://creativecommons.org/ns#"
   xmlns:rdf="http://www.w3.org/1999/02/22-rdf-syntax-ns#"
   xmlns:svg="http://www.w3.org/2000/svg"
   xmlns="http://www.w3.org/2000/svg"
   xmlns:sodipodi="http://sodipodi.sourceforge.net/DTD/sodipodi-0.dtd"
   xmlns:inkscape="http://www.inkscape.org/namespaces/inkscape"
   id="svg3390"
   version="1.1"
   inkscape:version="0.91 r13725"
   width="1075"
   height="1316.25"
   viewBox="0 0 1075 1316.25"
   sodipodi:docname="trashCan.svg">
  <metadata
     id="metadata3396">
    <rdf:RDF>
      <cc:Work
         rdf:about="">
        <dc:format>image/svg+xml</dc:format>
        <dc:type
           rdf:resource="http://purl.org/dc/dcmitype/StillImage" />
        <dc:title></dc:title>
      </cc:Work>
    </rdf:RDF>
  </metadata>
  <defs
     id="defs3394" />
  <sodipodi:namedview
     pagecolor="#ffffff"
     bordercolor="#666666"
     borderopacity="1"
     objecttolerance="10"
     gridtolerance="10"
     guidetolerance="10"
     inkscape:pageopacity="0"
     inkscape:pageshadow="2"
     inkscape:window-width="1366"
     inkscape:window-height="742"
     id="namedview3392"
     showgrid="false"
     inkscape:zoom="0.42393162"
     inkscape:cx="292.17742"
     inkscape:cy="658.125"
     inkscape:window-x="0"
     inkscape:window-y="0"
     inkscape:window-maximized="1"
     inkscape:current-layer="svg3390" />
  <path
     style="fill:#000000"
     d="m 160.07408,1314.4428 c -11.44393,-2.4828 -19.52883,-5.301 -29.51622,-10.2888 -31.371953,-15.6672 -53.228253,-41.6577 -64.054093,-76.1701 l -3.44591,-10.9854 -0.32285,-442.81259 -0.32285,-442.8125 475.020713,0 475.02073,0 -0.3228,442.1875 -0.3229,442.18759 -3.4459,10.9854 c -13.09341,41.7412 -43.64981,72.2106 -84.31871,84.0786 -7.7289,2.2554 -16.17314,3.5469 -28.48543,4.3566 -10.04041,0.6603 -168.82299,1.1199 -372.5,1.0783 -297.65927,-0.061 -356.28956,-0.3524 -362.98377,-1.8047 z M 317.36675,1129.437 c 13.80764,-3.2544 23.38557,-8.7758 34.49471,-19.8849 7.04131,-7.0413 11.24187,-12.5078 14.01952,-18.2447 8.30989,-17.163 7.76493,4.0629 7.76493,-302.43399 0,-306.49681 0.54496,-285.27091 -7.76493,-302.43389 -5.43432,-11.2239 -21.04033,-26.82991 -32.26423,-32.26424 -21.30008,-10.31297 -44.8177,-10.31297 -66.11778,0 -11.2239,5.43433 -26.82991,21.04034 -32.26423,32.26424 -8.30989,17.16298 -7.76493,-4.06292 -7.76493,302.43389 0,306.49689 -0.54496,285.27099 7.76493,302.43399 5.44911,11.2544 21.03807,26.8286 32.32452,32.2939 15.61173,7.5598 33.56748,9.6636 49.80749,5.8358 z m 237.5,0 c 13.80764,-3.2544 23.38557,-8.7758 34.49471,-19.8849 7.04131,-7.0413 11.24187,-12.5078 14.01952,-18.2447 8.30989,-17.163 7.76493,4.0629 7.76493,-302.43399 0,-306.49681 0.54496,-285.27091 -7.76493,-302.43389 -5.43432,-11.2239 -21.04033,-26.82991 -32.26423,-32.26424 -21.30008,-10.31297 -44.8177,-10.31297 -66.11778,0 -11.2239,5.43433 -26.82991,21.04034 -32.26424,32.26424 -8.30988,17.16298 -7.76492,-4.06292 -7.76492,302.43389 0,306.49689 -0.54496,285.27099 7.76492,302.43399 5.44912,11.2544 21.03808,26.8286 32.32453,32.2939 15.61172,7.5598 33.56747,9.6636 49.80749,5.8358 z m 237.5,0 c 13.80764,-3.2544 23.38557,-8.7758 34.49471,-19.8849 7.04131,-7.0413 11.24188,-12.5078 14.01952,-18.2447 8.30989,-17.163 7.76493,4.0629 7.76493,-302.43399 0,-306.49681 0.54496,-285.27091 -7.76493,-302.43389 -5.43432,-11.2239 -21.04033,-26.82991 -32.26423,-32.26424 -21.30008,-10.31297 -44.8177,-10.31297 -66.11778,0 -11.2239,5.43433 -26.82991,21.04034 -32.26423,32.26424 -8.30989,17.16298 -7.76493,-4.06292 -7.76493,302.43389 0,306.49689 -0.54496,285.27099 7.76493,302.43399 5.44911,11.2544 21.03807,26.8286 32.32452,32.2939 15.61173,7.5598 33.56748,9.6636 49.80749,5.8358 z M 55.684257,263.13098 c -4.05548,-0.98128 -11.08673,-3.58217 -15.625,-5.77976 -11.28645,-5.46529 -26.87541,-21.03949 -32.324531,-32.29392 -10.312968,-21.30008 -10.312968,-44.8177 0,-66.11778 5.434331,-11.2239 21.040341,-26.82991 32.264241,-32.26424 16.49045,-7.98427 12.45374,-7.76306 142.032773,-7.78339 l 117.72387,-0.0185 1.48639,-7.1875 c 9.77072,-47.246787 68.39347,-87.002882 152.46212,-103.3949387 30.57709,-5.962051 46.67108,-7.38074601 83.72874,-7.38074601 37.05766,0 53.15165,1.41869501 83.72874,7.38074601 C 705.23025,24.683008 763.853,64.439103 773.62372,111.68591 l 1.48639,7.1875 117.72387,0.0185 c 129.57902,0.0203 125.54232,-0.20087 142.03282,7.7834 11.2239,5.43433 26.8299,21.04034 32.2642,32.26424 10.313,21.30008 10.313,44.8177 0,66.11778 -5.4343,11.2239 -21.0403,26.82991 -32.2642,32.26423 -17.3871,8.41843 24.4257,7.77374 -498.05894,7.67927 -405.90281,-0.0734 -474.806003,-0.34119 -481.123603,-1.86982 z"
     id="path3400"
     inkscape:connector-curvature="0" />
</svg>
